<svg xmlns="http://www.w3.org/2000/svg" xmlns:xlink="http://www.w3.org/1999/xlink" viewBox="0 0 605.62 201.41"><defs><style>.cls-1{isolation:isolate;}.cls-2{fill:url(#linear-gradient);}.cls-3{fill:#e6e7e8;mix-blend-mode:multiply;}.cls-4{fill:url(#linear-gradient-2);}.cls-5{opacity:0.85;}.cls-6{fill:#fff;}</style><linearGradient id="linear-gradient" x1="92.55" y1="146.86" x2="162.94" y2="185.44" gradientUnits="userSpaceOnUse"><stop offset="0" stop-color="#d7df23"/><stop offset="0.33" stop-color="#add824"/><stop offset="0.77" stop-color="#7acf25"/><stop offset="0.99" stop-color="#66cc25"/></linearGradient><linearGradient id="linear-gradient-2" x1="298.48" y1="-3.24" x2="305.26" y2="202.72" gradientUnits="userSpaceOnUse"><stop offset="0" stop-color="#f2c31c"/><stop offset="1" stop-color="#ffa515"/></linearGradient></defs><g class="cls-1"><g id="Layer_2" data-name="Layer 2"><g id="Layer_1-2" data-name="Layer 1"><path class="cls-2" d="M157.72,176.52l-.82,18a51.78,51.78,0,0,0-5-10.07l-.51-.79C134.6,157.89,99,149.53,99,149.53c19.67-1.82,39,8.21,50.24,17.72,1,.83,1.88,1.64,2.74,2.45A36.09,36.09,0,0,1,157.72,176.52Z"/><path class="cls-3" d="M157.72,176.52l-.82,18a51.78,51.78,0,0,0-5-10.07c-.17-.27-1.19-1.8-1.37-2.06.39-4.79.08-11.57-1-14.83,1,.83,1.49,1.31,2.35,2.12A36.09,36.09,0,0,1,157.72,176.52Z"/><path class="cls-4" d="M553.9,81.71V77.54h48.82L594.8,59H252.74c6.61-19.77,6-42.93-24.54-54.45C175-15.52,104.92,37,104.92,37l8.54,17.18C222.62.75,213.28,59,213.28,59H50.92C23.64,71.64-1.1,100.2,0,131.68c.07,2.08.2,4.11.37,6.07,6.19,71.43,72.91,63.39,72.91,63.39L68.9,191c-14.77-2.61-28-11.39-32.72-30.32C33,148,33,136.91,35,127.22c5.27-26,25-41.8,37.43-49.68H84.93c7.67,3.06,19.58,10.08,22.68,25a41.23,41.23,0,0,1,20.44,5.66c-18.57-1.22-41.9,2-66.64,17a52.5,52.5,0,0,0,0,7.15c1,17.37,9.82,60.21,74,57.47l-.3-.14-.49-.24c-6.1-2.93-45.94-22.92-46.69-44.58a6.61,6.61,0,0,1,0-.77s-.79.21-1.94.65c-2,.77-5.23,2.27-7.11,4.59a11.61,11.61,0,0,1,3.41-5.21c4.15-4,14.66-9.93,33.19-7.84,19.24,2.16,42.51,18.89,41.41,42.55v15.71h35.44v-117h20.94v117h38.18v-117h19.9v111.9s29.33.23,42,.19c23-.07,44-4.85,57-23,6.27-8.78,8.61-19.87,8.84-30.41a53.89,53.89,0,0,0-.35-8,29.14,29.14,0,0,0-3.25-10.6c-11.87-21.24-32.39-21-50.34-27.22-12-4.16-16.44-9.06-17.91-12.83h74.6a10,10,0,0,1,10,10v107H430v-107a10,10,0,0,1,10-10h78.24l0,3.49s-55.44,24.86-74,35.48l2.29,18.93,2.73,22.81s50.14,4.81,68.57,36.29H553.9V113.46c-4.92-5-19.32-5.88-19.52-5.89l.39,0,1.27-.18,2.06-.24h0a81.17,81.17,0,0,1,15.57-.31h.18a38.74,38.74,0,0,1,14.46,3.83,21,21,0,0,1,9.7,10,29.29,29.29,0,0,1,2.79,10.08c1.38,17.63-18.1,25.06-18.1,25.06V167c12.09-.45,25-3.63,35-17.56a41.71,41.71,0,0,0,7.09-15.68C610.27,108,586.46,83.33,553.9,81.71ZM156.9,114a110,110,0,0,0-18.84-4.72c-.8-8.67-3.52-22.46-12.53-31.73H156.9Zm174.34,2.2.25.08,1.67.54.06,0a33.63,33.63,0,0,1,4.72,1.87,22.17,22.17,0,0,1,9.24,9.11c4.81,8.83,4.44,21.23-2.62,32.12-7.77,12-25.6,14.74-33.46,15.37l-.08-.56-.22-1.51-5.65-38.38,0-.21-5.64-38.38a17.25,17.25,0,0,0,1.89,4.43,18.42,18.42,0,0,0,2.75,3.47C310.85,110.94,322.67,113.58,331.24,116.19Zm187.89,43.27a72.83,72.83,0,0,0-35.63-22,101.19,101.19,0,0,1,9.14-5.66,144.73,144.73,0,0,1,26.49-11.18Z"/><g class="cls-5"><path class="cls-6" d="M209.21,28h-.06a.3.3,0,0,0-.29.21.31.31,0,0,0,.15.38,24,24,0,0,1,12.61,17.85,33.32,33.32,0,0,1,.48,3.39c.07.67.14,1.33.23,2a.31.31,0,0,0,.31.27h0a.3.3,0,0,0,.31-.26c.24-1.36.39-2.57.48-3.7C223.94,39.73,218.76,29.91,209.21,28Z"/><path class="cls-6" d="M52.79,66.24H52.7C39.61,70,27.49,80,20.28,93.05a49.05,49.05,0,0,0-2.2,4.64l-.39.91a.32.32,0,0,0,.13.39A.32.32,0,0,0,18,99a.3.3,0,0,0,.25-.12q.91-1.25,1.77-2.49A92.73,92.73,0,0,1,52.93,66.83a.33.33,0,0,0,.15-.4A.31.31,0,0,0,52.79,66.24Z"/><path class="cls-6" d="M154.2,142.45h0a.33.33,0,0,0-.3.2.32.32,0,0,0,.14.38l1.65,1c1.14.66,2.32,1.34,3.23,2,5.08,3.53,6.7,8,4.94,13.81a.31.31,0,0,0,.15.36.28.28,0,0,0,.15,0,.32.32,0,0,0,.24-.11,10,10,0,0,0,.33-11.84C161.94,144.41,157.47,143,154.2,142.45Z"/><path class="cls-6" d="M345.64,166.92a.32.32,0,0,0-.2.08,34.28,34.28,0,0,1-18.1,9.37.3.3,0,0,0-.26.31.3.3,0,0,0,.27.3,16.12,16.12,0,0,0,2.95.08,20.21,20.21,0,0,0,15.63-9.67.31.31,0,0,0-.08-.4A.28.28,0,0,0,345.64,166.92Z"/><path class="cls-6" d="M280.94,77.18a5.53,5.53,0,0,0-1.59-4.11A7.45,7.45,0,0,0,274,71h-.17c-2.91,0-6.37.3-10.58.74a.31.31,0,0,0,0,.62c2,.21,4.22.34,6.33.46,1.43.09,2.86.17,4.22.28,1.1.08,4.65.63,4.47,4.07a337.62,337.62,0,0,0,1,37,.31.31,0,0,0,.31.28.31.31,0,0,0,.31-.28A337.68,337.68,0,0,0,281,78.93Z"/><path class="cls-6" d="M386.26,70.54c-3.88.07-8,.26-12.93.61a.31.31,0,0,0,0,.62c2.72.26,5.49.43,8.17.59l.42,0,1.57.08A18.8,18.8,0,0,1,390,73.54a13.31,13.31,0,0,1,8.42,12c0,1.6,0,3.24,0,4.88,0,1.23,0,2.46,0,3.67.08,9.56.26,17.6.86,25.79a.32.32,0,0,0,.31.29h0a.32.32,0,0,0,.32-.29c.44-5,.76-10.29,1-17.18.23-6.09.35-11.72.36-17.23a15.48,15.48,0,0,0-3-8.78A15.19,15.19,0,0,0,386.26,70.54Z"/><path class="cls-6" d="M425.59,183.79c-.15-6-.4-10.52-.82-14.78a.31.31,0,0,0-.31-.28.3.3,0,0,0-.31.28c-.41,4.26-.65,8.82-.78,14.77-.05.63-.05,1.31,0,2a15.5,15.5,0,0,1-.15,3c-.08.17-.13.2-.5.27s-.91.08-1.41.13c-.74.06-1.51.12-2.18.21a30.26,30.26,0,0,0-3.72.69.32.32,0,0,0-.23.31.3.3,0,0,0,.24.3,33.61,33.61,0,0,0,5.59.69c.34,0,.71,0,1.1,0,1.82,0,2.91-.56,3.35-1.74a12.27,12.27,0,0,0,.22-3.92A19.24,19.24,0,0,1,425.59,183.79Z"/><path class="cls-6" d="M515.48,90.24h-.08c-10,2.64-19.44,6.88-29,11.37a268.07,268.07,0,0,0-27.31,14.92.31.31,0,0,0,.16.57.25.25,0,0,0,.12,0c12.07-5,24.33-11,36.19-16.7,6.6-3.19,13.43-6.48,20.07-9.55a.33.33,0,0,0,.16-.39A.32.32,0,0,0,515.48,90.24Z"/><path class="cls-6" d="M586,128.44a.31.31,0,0,0-.28-.18h-.08a.31.31,0,0,0-.23.33c.44,6.3.24,13.4-4.6,18.21-.58.5-1.11,1-1.58,1.44a.32.32,0,0,0,0,.39.29.29,0,0,0,.26.15l.1,0a11.23,11.23,0,0,0,6.89-6.57A17.38,17.38,0,0,0,586,128.44Z"/></g></g></g></g></svg>